<svg id="visual" viewBox="0 0 900 300" width="900" height="300" xmlns="http://www.w3.org/2000/svg" xmlns:xlink="http://www.w3.org/1999/xlink" version="1.1"><rect x="0" y="0" width="900" height="300" fill="#001220"></rect><path d="M0 91L16.7 89.7C33.3 88.3 66.7 85.7 100 86C133.3 86.3 166.7 89.7 200 90C233.3 90.3 266.7 87.7 300 87.5C333.3 87.3 366.7 89.7 400 91.2C433.3 92.7 466.7 93.3 500 91.2C533.3 89 566.7 84 600 80.5C633.3 77 666.7 75 700 73.2C733.3 71.3 766.7 69.7 800 69.2C833.3 68.7 866.7 69.3 883.3 69.7L900 70L900 0L883.3 0C866.7 0 833.3 0 800 0C766.7 0 733.3 0 700 0C666.7 0 633.3 0 600 0C566.7 0 533.3 0 500 0C466.7 0 433.3 0 400 0C366.7 0 333.3 0 300 0C266.7 0 233.3 0 200 0C166.7 0 133.3 0 100 0C66.7 0 33.3 0 16.7 0L0 0Z" fill="#1567e6"></path><path d="M0 79L16.7 77.7C33.3 76.3 66.7 73.7 100 73.3C133.3 73 166.7 75 200 74.5C233.3 74 266.7 71 300 70C333.3 69 366.7 70 400 71.8C433.3 73.7 466.7 76.3 500 74.5C533.3 72.7 566.7 66.3 600 65.8C633.3 65.3 666.7 70.7 700 73.8C733.3 77 766.7 78 800 78.8C833.3 79.7 866.7 80.3 883.3 80.7L900 81L900 0L883.3 0C866.7 0 833.3 0 800 0C766.7 0 733.3 0 700 0C666.7 0 633.3 0 600 0C566.7 0 533.3 0 500 0C466.7 0 433.3 0 400 0C366.7 0 333.3 0 300 0C266.7 0 233.3 0 200 0C166.7 0 133.3 0 100 0C66.7 0 33.3 0 16.7 0L0 0Z" fill="#0079ea"></path><path d="M0 69L16.7 68.2C33.3 67.3 66.7 65.7 100 63.3C133.3 61 166.7 58 200 58.3C233.3 58.7 266.7 62.3 300 61.8C333.3 61.3 366.7 56.7 400 58C433.3 59.3 466.7 66.7 500 68.7C533.3 70.7 566.7 67.3 600 63.5C633.3 59.7 666.7 55.3 700 56.7C733.3 58 766.7 65 800 66.3C833.3 67.7 866.7 63.3 883.3 61.2L900 59L900 0L883.3 0C866.7 0 833.3 0 800 0C766.7 0 733.3 0 700 0C666.7 0 633.3 0 600 0C566.7 0 533.3 0 500 0C466.7 0 433.3 0 400 0C366.7 0 333.3 0 300 0C266.7 0 233.3 0 200 0C166.7 0 133.3 0 100 0C66.7 0 33.3 0 16.7 0L0 0Z" fill="#0089e9"></path><path d="M0 46L16.7 47.8C33.3 49.7 66.7 53.3 100 54.8C133.3 56.3 166.7 55.7 200 53.5C233.3 51.3 266.7 47.7 300 46.8C333.3 46 366.7 48 400 49.5C433.3 51 466.7 52 500 50.7C533.3 49.3 566.7 45.7 600 45.3C633.3 45 666.7 48 700 49.2C733.3 50.3 766.7 49.7 800 50.2C833.3 50.7 866.7 52.3 883.3 53.2L900 54L900 0L883.3 0C866.7 0 833.3 0 800 0C766.7 0 733.3 0 700 0C666.7 0 633.3 0 600 0C566.7 0 533.3 0 500 0C466.7 0 433.3 0 400 0C366.7 0 333.3 0 300 0C266.7 0 233.3 0 200 0C166.7 0 133.3 0 100 0C66.7 0 33.3 0 16.7 0L0 0Z" fill="#0097e6"></path><path d="M0 34L16.7 35C33.3 36 66.7 38 100 40.3C133.3 42.7 166.7 45.3 200 45.7C233.3 46 266.7 44 300 44.2C333.3 44.3 366.7 46.7 400 46.5C433.3 46.3 466.7 43.7 500 42C533.3 40.3 566.7 39.7 600 40C633.3 40.3 666.7 41.7 700 41.3C733.3 41 766.7 39 800 37.5C833.3 36 866.7 35 883.3 34.5L900 34L900 0L883.3 0C866.7 0 833.3 0 800 0C766.7 0 733.3 0 700 0C666.7 0 633.3 0 600 0C566.7 0 533.3 0 500 0C466.7 0 433.3 0 400 0C366.7 0 333.3 0 300 0C266.7 0 233.3 0 200 0C166.7 0 133.3 0 100 0C66.7 0 33.3 0 16.7 0L0 0Z" fill="#00a4e2"></path><path d="M0 38L16.7 37.2C33.3 36.3 66.7 34.7 100 32.7C133.3 30.7 166.7 28.3 200 28.5C233.3 28.7 266.7 31.3 300 31.8C333.3 32.3 366.7 30.7 400 29.2C433.3 27.7 466.7 26.3 500 26.2C533.3 26 566.7 27 600 29.5C633.3 32 666.7 36 700 36.2C733.3 36.3 766.7 32.7 800 32.5C833.3 32.3 866.7 35.7 883.3 37.3L900 39L900 0L883.3 0C866.7 0 833.3 0 800 0C766.7 0 733.3 0 700 0C666.7 0 633.3 0 600 0C566.7 0 533.3 0 500 0C466.7 0 433.3 0 400 0C366.7 0 333.3 0 300 0C266.7 0 233.3 0 200 0C166.7 0 133.3 0 100 0C66.7 0 33.3 0 16.7 0L0 0Z" fill="#00afd9"></path><path d="M0 24L16.7 23.8C33.3 23.7 66.7 23.3 100 22.5C133.3 21.7 166.7 20.3 200 20.3C233.3 20.3 266.7 21.7 300 22.2C333.3 22.7 366.7 22.3 400 21.3C433.3 20.3 466.7 18.7 500 18.5C533.3 18.3 566.7 19.7 600 20.2C633.3 20.7 666.7 20.3 700 21.3C733.3 22.3 766.7 24.7 800 25.7C833.3 26.7 866.7 26.3 883.3 26.2L900 26L900 0L883.3 0C866.7 0 833.3 0 800 0C766.7 0 733.3 0 700 0C666.7 0 633.3 0 600 0C566.7 0 533.3 0 500 0C466.7 0 433.3 0 400 0C366.7 0 333.3 0 300 0C266.7 0 233.3 0 200 0C166.7 0 133.3 0 100 0C66.7 0 33.3 0 16.7 0L0 0Z" fill="#00b8cb"></path><path d="M0 15L16.7 15.2C33.3 15.3 66.7 15.7 100 15.7C133.3 15.7 166.7 15.3 200 15.2C233.3 15 266.7 15 300 14.3C333.3 13.7 366.7 12.3 400 11.3C433.3 10.3 466.7 9.7 500 9.7C533.3 9.7 566.7 10.3 600 11C633.3 11.7 666.7 12.3 700 12.2C733.3 12 766.7 11 800 11.3C833.3 11.7 866.7 13.3 883.3 14.2L900 15L900 0L883.3 0C866.7 0 833.3 0 800 0C766.7 0 733.3 0 700 0C666.7 0 633.3 0 600 0C566.7 0 533.3 0 500 0C466.7 0 433.3 0 400 0C366.7 0 333.3 0 300 0C266.7 0 233.3 0 200 0C166.7 0 133.3 0 100 0C66.7 0 33.3 0 16.7 0L0 0Z" fill="#1fbfba"></path></svg>