<svg id="visual" viewBox="0 0 900 600" width="900" height="600" xmlns="http://www.w3.org/2000/svg" xmlns:xlink="http://www.w3.org/1999/xlink" version="1.1"><rect x="0" y="0" width="900" height="600" fill="#001220"></rect><path d="M0 157L16.7 155.3C33.3 153.7 66.7 150.3 100 154.2C133.3 158 166.7 169 200 168.3C233.3 167.7 266.7 155.3 300 151.8C333.3 148.3 366.7 153.7 400 161.3C433.3 169 466.7 179 500 176.2C533.3 173.3 566.7 157.7 600 150.5C633.3 143.3 666.7 144.7 700 153.5C733.3 162.3 766.7 178.7 800 177.2C833.3 175.7 866.7 156.3 883.3 146.7L900 137L900 0L883.3 0C866.7 0 833.3 0 800 0C766.7 0 733.3 0 700 0C666.7 0 633.3 0 600 0C566.7 0 533.3 0 500 0C466.7 0 433.3 0 400 0C366.7 0 333.3 0 300 0C266.7 0 233.3 0 200 0C166.7 0 133.3 0 100 0C66.7 0 33.3 0 16.7 0L0 0Z" fill="#1fbfba"></path><path d="M0 141L16.7 139.3C33.3 137.7 66.7 134.3 100 139C133.3 143.7 166.7 156.3 200 155C233.3 153.7 266.7 138.3 300 130.2C333.3 122 366.7 121 400 124.3C433.3 127.7 466.7 135.3 500 142.7C533.3 150 566.7 157 600 155.3C633.3 153.7 666.7 143.3 700 141.3C733.3 139.3 766.7 145.7 800 150.2C833.3 154.7 866.7 157.3 883.3 158.7L900 160L900 0L883.3 0C866.7 0 833.3 0 800 0C766.7 0 733.3 0 700 0C666.7 0 633.3 0 600 0C566.7 0 533.3 0 500 0C466.7 0 433.3 0 400 0C366.7 0 333.3 0 300 0C266.7 0 233.3 0 200 0C166.7 0 133.3 0 100 0C66.7 0 33.3 0 16.7 0L0 0Z" fill="#00b8cb"></path><path d="M0 115L16.7 120.2C33.3 125.3 66.7 135.7 100 138.3C133.3 141 166.7 136 200 133C233.3 130 266.7 129 300 127.3C333.3 125.7 366.7 123.3 400 119.2C433.3 115 466.7 109 500 113.2C533.3 117.3 566.7 131.7 600 135.3C633.3 139 666.7 132 700 128.5C733.3 125 766.7 125 800 122.7C833.3 120.3 866.7 115.7 883.3 113.3L900 111L900 0L883.3 0C866.7 0 833.3 0 800 0C766.7 0 733.3 0 700 0C666.7 0 633.3 0 600 0C566.7 0 533.3 0 500 0C466.7 0 433.3 0 400 0C366.7 0 333.3 0 300 0C266.7 0 233.3 0 200 0C166.7 0 133.3 0 100 0C66.7 0 33.3 0 16.7 0L0 0Z" fill="#00afd9"></path><path d="M0 97L16.7 101.3C33.3 105.7 66.7 114.3 100 119.3C133.3 124.3 166.7 125.7 200 119.3C233.3 113 266.7 99 300 98.3C333.3 97.7 366.7 110.3 400 115.5C433.3 120.7 466.7 118.3 500 113.3C533.3 108.3 566.7 100.7 600 101.8C633.3 103 666.7 113 700 111.8C733.3 110.7 766.7 98.3 800 97.2C833.3 96 866.7 106 883.3 111L900 116L900 0L883.3 0C866.7 0 833.3 0 800 0C766.7 0 733.3 0 700 0C666.7 0 633.3 0 600 0C566.7 0 533.3 0 500 0C466.7 0 433.3 0 400 0C366.7 0 333.3 0 300 0C266.7 0 233.3 0 200 0C166.7 0 133.3 0 100 0C66.7 0 33.3 0 16.7 0L0 0Z" fill="#00a4e2"></path><path d="M0 92L16.7 89C33.3 86 66.7 80 100 81.7C133.3 83.3 166.7 92.7 200 94.5C233.3 96.3 266.7 90.7 300 88.7C333.3 86.7 366.7 88.3 400 87.3C433.3 86.3 466.7 82.7 500 79.5C533.3 76.3 566.7 73.7 600 76.3C633.3 79 666.7 87 700 91.8C733.3 96.7 766.7 98.3 800 95.2C833.3 92 866.7 84 883.3 80L900 76L900 0L883.3 0C866.7 0 833.3 0 800 0C766.7 0 733.3 0 700 0C666.7 0 633.3 0 600 0C566.7 0 533.3 0 500 0C466.7 0 433.3 0 400 0C366.7 0 333.3 0 300 0C266.7 0 233.3 0 200 0C166.7 0 133.3 0 100 0C66.7 0 33.3 0 16.7 0L0 0Z" fill="#0097e6"></path><path d="M0 78L16.7 76.8C33.3 75.7 66.7 73.3 100 69.8C133.3 66.3 166.7 61.7 200 60.3C233.3 59 266.7 61 300 61.3C333.3 61.7 366.7 60.3 400 59C433.3 57.7 466.7 56.3 500 56.5C533.3 56.7 566.7 58.3 600 60.3C633.3 62.3 666.7 64.7 700 67.7C733.3 70.7 766.7 74.3 800 74.2C833.3 74 866.7 70 883.3 68L900 66L900 0L883.3 0C866.7 0 833.3 0 800 0C766.7 0 733.3 0 700 0C666.7 0 633.3 0 600 0C566.7 0 533.3 0 500 0C466.7 0 433.3 0 400 0C366.7 0 333.3 0 300 0C266.7 0 233.3 0 200 0C166.7 0 133.3 0 100 0C66.7 0 33.3 0 16.7 0L0 0Z" fill="#0089e9"></path><path d="M0 54L16.7 52.3C33.3 50.7 66.7 47.3 100 43.8C133.3 40.3 166.7 36.7 200 38.5C233.3 40.3 266.7 47.7 300 50.2C333.3 52.7 366.7 50.3 400 50C433.3 49.7 466.7 51.3 500 51.2C533.3 51 566.7 49 600 49C633.3 49 666.7 51 700 52.5C733.3 54 766.7 55 800 55.7C833.3 56.3 866.7 56.7 883.3 56.8L900 57L900 0L883.3 0C866.7 0 833.3 0 800 0C766.7 0 733.3 0 700 0C666.7 0 633.3 0 600 0C566.7 0 533.3 0 500 0C466.7 0 433.3 0 400 0C366.7 0 333.3 0 300 0C266.7 0 233.3 0 200 0C166.7 0 133.3 0 100 0C66.7 0 33.3 0 16.7 0L0 0Z" fill="#0079ea"></path><path d="M0 17L16.7 19.7C33.3 22.3 66.7 27.7 100 27.5C133.3 27.3 166.7 21.7 200 21.3C233.3 21 266.7 26 300 28.8C333.3 31.7 366.7 32.3 400 32C433.3 31.7 466.7 30.3 500 29.2C533.3 28 566.7 27 600 26.2C633.3 25.3 666.7 24.7 700 23.7C733.3 22.7 766.7 21.3 800 22.2C833.3 23 866.7 26 883.3 27.5L900 29L900 0L883.3 0C866.7 0 833.3 0 800 0C766.7 0 733.3 0 700 0C666.7 0 633.3 0 600 0C566.7 0 533.3 0 500 0C466.7 0 433.3 0 400 0C366.7 0 333.3 0 300 0C266.7 0 233.3 0 200 0C166.7 0 133.3 0 100 0C66.7 0 33.3 0 16.7 0L0 0Z" fill="#1567e6"></path></svg>