<svg id="visual" viewBox="0 0 960 300" width="960" height="300" xmlns="http://www.w3.org/2000/svg" xmlns:xlink="http://www.w3.org/1999/xlink" version="1.1"><path d="M0 87L17.8 83.8C35.7 80.7 71.3 74.3 106.8 75.5C142.3 76.7 177.7 85.3 213.2 86C248.7 86.7 284.3 79.3 320 78.3C355.7 77.3 391.3 82.7 426.8 86.2C462.3 89.7 497.7 91.3 533.2 89.5C568.7 87.7 604.3 82.3 640 82.7C675.7 83 711.3 89 746.8 91.2C782.3 93.3 817.7 91.7 853.2 89.3C888.7 87 924.3 84 942.2 82.5L960 81L960 0L942.2 0C924.3 0 888.7 0 853.2 0C817.7 0 782.3 0 746.8 0C711.3 0 675.7 0 640 0C604.3 0 568.7 0 533.2 0C497.7 0 462.3 0 426.8 0C391.3 0 355.7 0 320 0C284.3 0 248.7 0 213.2 0C177.7 0 142.3 0 106.8 0C71.3 0 35.7 0 17.8 0L0 0Z" fill="#1567e6"></path><path d="M0 75L17.8 73.5C35.7 72 71.3 69 106.8 70.3C142.3 71.7 177.7 77.3 213.2 78.2C248.7 79 284.3 75 320 73.3C355.7 71.7 391.3 72.3 426.8 73.3C462.3 74.3 497.7 75.7 533.2 76.3C568.7 77 604.3 77 640 75C675.7 73 711.3 69 746.8 70C782.3 71 817.7 77 853.2 80.3C888.7 83.7 924.3 84.3 942.2 84.7L960 85L960 0L942.2 0C924.3 0 888.7 0 853.2 0C817.7 0 782.3 0 746.8 0C711.3 0 675.7 0 640 0C604.3 0 568.7 0 533.2 0C497.7 0 462.3 0 426.8 0C391.3 0 355.7 0 320 0C284.3 0 248.7 0 213.2 0C177.7 0 142.3 0 106.8 0C71.3 0 35.7 0 17.8 0L0 0Z" fill="#0079ea"></path><path d="M0 68L17.8 66.2C35.7 64.3 71.3 60.7 106.8 57.8C142.3 55 177.7 53 213.2 54.8C248.7 56.7 284.3 62.3 320 64C355.7 65.7 391.3 63.3 426.8 60.8C462.3 58.3 497.7 55.7 533.2 57.3C568.7 59 604.3 65 640 66C675.7 67 711.3 63 746.8 59.7C782.3 56.3 817.7 53.7 853.2 54.3C888.7 55 924.3 59 942.2 61L960 63L960 0L942.2 0C924.3 0 888.7 0 853.2 0C817.7 0 782.3 0 746.8 0C711.3 0 675.7 0 640 0C604.3 0 568.7 0 533.2 0C497.7 0 462.3 0 426.8 0C391.3 0 355.7 0 320 0C284.3 0 248.7 0 213.2 0C177.7 0 142.3 0 106.8 0C71.3 0 35.7 0 17.8 0L0 0Z" fill="#0089e9"></path><path d="M0 42L17.8 43.3C35.7 44.7 71.3 47.3 106.8 49.3C142.3 51.3 177.7 52.7 213.2 53.3C248.7 54 284.3 54 320 53.5C355.7 53 391.3 52 426.8 50C462.3 48 497.7 45 533.2 44.8C568.7 44.7 604.3 47.3 640 48C675.7 48.7 711.3 47.3 746.8 47.8C782.3 48.3 817.7 50.7 853.2 53.3C888.7 56 924.3 59 942.2 60.5L960 62L960 0L942.2 0C924.3 0 888.7 0 853.2 0C817.7 0 782.3 0 746.8 0C711.3 0 675.7 0 640 0C604.3 0 568.7 0 533.2 0C497.7 0 462.3 0 426.8 0C391.3 0 355.7 0 320 0C284.3 0 248.7 0 213.2 0C177.7 0 142.3 0 106.8 0C71.3 0 35.7 0 17.8 0L0 0Z" fill="#0097e6"></path><path d="M0 35L17.8 36.5C35.7 38 71.3 41 106.8 42.7C142.3 44.3 177.7 44.7 213.2 43.8C248.7 43 284.3 41 320 39.5C355.7 38 391.3 37 426.8 38.2C462.3 39.3 497.7 42.7 533.2 45.2C568.7 47.7 604.3 49.3 640 47.5C675.7 45.7 711.3 40.3 746.8 40.2C782.3 40 817.7 45 853.2 47.3C888.7 49.7 924.3 49.3 942.2 49.2L960 49L960 0L942.2 0C924.3 0 888.7 0 853.2 0C817.7 0 782.3 0 746.8 0C711.3 0 675.7 0 640 0C604.3 0 568.7 0 533.2 0C497.7 0 462.3 0 426.8 0C391.3 0 355.7 0 320 0C284.3 0 248.7 0 213.2 0C177.7 0 142.3 0 106.8 0C71.3 0 35.7 0 17.8 0L0 0Z" fill="#00a4e2"></path><path d="M0 36L17.8 35C35.7 34 71.3 32 106.8 30.8C142.3 29.7 177.7 29.3 213.2 31C248.7 32.7 284.3 36.3 320 35.8C355.7 35.3 391.3 30.7 426.8 29.2C462.3 27.7 497.7 29.3 533.2 29.2C568.7 29 604.3 27 640 27.7C675.7 28.3 711.3 31.7 746.8 33.2C782.3 34.7 817.7 34.3 853.2 33C888.7 31.7 924.3 29.3 942.2 28.2L960 27L960 0L942.2 0C924.3 0 888.7 0 853.2 0C817.7 0 782.3 0 746.8 0C711.3 0 675.7 0 640 0C604.3 0 568.7 0 533.2 0C497.7 0 462.3 0 426.8 0C391.3 0 355.7 0 320 0C284.3 0 248.7 0 213.2 0C177.7 0 142.3 0 106.8 0C71.3 0 35.7 0 17.8 0L0 0Z" fill="#00afd9"></path><path d="M0 28L17.8 27.5C35.7 27 71.3 26 106.8 24.7C142.3 23.3 177.7 21.7 213.2 22C248.7 22.3 284.3 24.7 320 24.8C355.7 25 391.3 23 426.8 22.5C462.3 22 497.7 23 533.2 24C568.7 25 604.3 26 640 26.3C675.7 26.7 711.3 26.3 746.8 24.7C782.3 23 817.7 20 853.2 19C888.7 18 924.3 19 942.2 19.5L960 20L960 0L942.2 0C924.3 0 888.7 0 853.2 0C817.7 0 782.3 0 746.8 0C711.3 0 675.7 0 640 0C604.3 0 568.7 0 533.2 0C497.7 0 462.3 0 426.8 0C391.3 0 355.7 0 320 0C284.3 0 248.7 0 213.2 0C177.7 0 142.3 0 106.8 0C71.3 0 35.7 0 17.8 0L0 0Z" fill="#00b8cb"></path><path d="M0 16L17.8 15.5C35.7 15 71.3 14 106.8 13.2C142.3 12.3 177.7 11.7 213.2 12C248.7 12.3 284.3 13.7 320 14.7C355.7 15.7 391.3 16.3 426.8 15.3C462.3 14.3 497.7 11.7 533.2 10.2C568.7 8.7 604.3 8.3 640 9.2C675.7 10 711.3 12 746.8 12C782.3 12 817.7 10 853.2 10.2C888.7 10.3 924.3 12.7 942.2 13.8L960 15L960 0L942.2 0C924.3 0 888.7 0 853.2 0C817.7 0 782.3 0 746.8 0C711.3 0 675.7 0 640 0C604.3 0 568.7 0 533.2 0C497.7 0 462.3 0 426.8 0C391.3 0 355.7 0 320 0C284.3 0 248.7 0 213.2 0C177.7 0 142.3 0 106.8 0C71.3 0 35.7 0 17.8 0L0 0Z" fill="#1fbfba"></path></svg>