<svg id="visual" viewBox="0 0 900 600" width="900" height="600" xmlns="http://www.w3.org/2000/svg" xmlns:xlink="http://www.w3.org/1999/xlink" version="1.1"><rect x="0" y="0" width="900" height="600" fill="#3c31dd"></rect><path d="M0 228L21.5 219C43 210 86 192 128.8 188.2C171.7 184.3 214.3 194.7 257.2 206.3C300 218 343 231 385.8 226.8C428.7 222.7 471.3 201.3 514.2 194C557 186.7 600 193.3 642.8 192C685.7 190.7 728.3 181.3 771.2 186.7C814 192 857 212 878.5 222L900 232L900 0L878.5 0C857 0 814 0 771.2 0C728.3 0 685.7 0 642.8 0C600 0 557 0 514.2 0C471.3 0 428.7 0 385.8 0C343 0 300 0 257.2 0C214.3 0 171.7 0 128.8 0C86 0 43 0 21.5 0L0 0Z" fill="#4facf7"></path><path d="M0 196L21.5 191.8C43 187.7 86 179.3 128.8 180.7C171.7 182 214.3 193 257.2 197.5C300 202 343 200 385.8 192.8C428.7 185.7 471.3 173.3 514.2 165.7C557 158 600 155 642.8 153.3C685.7 151.7 728.3 151.3 771.2 156.7C814 162 857 173 878.5 178.5L900 184L900 0L878.5 0C857 0 814 0 771.2 0C728.3 0 685.7 0 642.8 0C600 0 557 0 514.2 0C471.3 0 428.7 0 385.8 0C343 0 300 0 257.2 0C214.3 0 171.7 0 128.8 0C86 0 43 0 21.5 0L0 0Z" fill="#89c0fa"></path><path d="M0 121L21.5 124.3C43 127.7 86 134.3 128.8 139.7C171.7 145 214.3 149 257.2 144C300 139 343 125 385.8 119.5C428.7 114 471.3 117 514.2 119.3C557 121.7 600 123.3 642.8 118.8C685.7 114.3 728.3 103.7 771.2 97.7C814 91.7 857 90.3 878.5 89.7L900 89L900 0L878.5 0C857 0 814 0 771.2 0C728.3 0 685.7 0 642.8 0C600 0 557 0 514.2 0C471.3 0 428.7 0 385.8 0C343 0 300 0 257.2 0C214.3 0 171.7 0 128.8 0C86 0 43 0 21.5 0L0 0Z" fill="#b4d4fc"></path><path d="M0 81L21.5 85.7C43 90.3 86 99.7 128.8 99.3C171.7 99 214.3 89 257.2 88.7C300 88.3 343 97.7 385.8 96.3C428.7 95 471.3 83 514.2 79.8C557 76.7 600 82.3 642.8 82C685.7 81.7 728.3 75.3 771.2 70.5C814 65.7 857 62.3 878.5 60.7L900 59L900 0L878.5 0C857 0 814 0 771.2 0C728.3 0 685.7 0 642.8 0C600 0 557 0 514.2 0C471.3 0 428.7 0 385.8 0C343 0 300 0 257.2 0C214.3 0 171.7 0 128.8 0C86 0 43 0 21.5 0L0 0Z" fill="#dbe9fe"></path><path d="M0 58L21.5 56.3C43 54.7 86 51.3 128.8 53.7C171.7 56 214.3 64 257.2 65.5C300 67 343 62 385.8 56.2C428.7 50.3 471.3 43.7 514.2 44.2C557 44.7 600 52.3 642.8 51C685.7 49.7 728.3 39.3 771.2 41.3C814 43.3 857 57.7 878.5 64.8L900 72L900 0L878.5 0C857 0 814 0 771.2 0C728.3 0 685.7 0 642.8 0C600 0 557 0 514.2 0C471.3 0 428.7 0 385.8 0C343 0 300 0 257.2 0C214.3 0 171.7 0 128.8 0C86 0 43 0 21.5 0L0 0Z" fill="#ffffff"></path></svg>