<svg id="visual" viewBox="0 0 900 300" width="900" height="300" xmlns="http://www.w3.org/2000/svg" xmlns:xlink="http://www.w3.org/1999/xlink" version="1.1"><rect x="0" y="0" width="900" height="300" fill="#3c31dd"></rect><path d="M0 205L7.8 204.3C15.7 203.7 31.3 202.3 47.2 202.7C63 203 79 205 94.8 211.5C110.7 218 126.3 229 142 235C157.7 241 173.3 242 189.2 237.2C205 232.3 221 221.7 236.8 216.7C252.7 211.7 268.3 212.3 284.2 215.7C300 219 316 225 331.8 228.5C347.7 232 363.3 233 379 227C394.7 221 410.3 208 426.2 207.3C442 206.7 458 218.3 473.8 220.2C489.7 222 505.3 214 521 215.5C536.7 217 552.3 228 568.2 234.7C584 241.3 600 243.7 615.8 242.2C631.7 240.7 647.3 235.3 663.2 227.2C679 219 695 208 710.8 208.5C726.7 209 742.3 221 758 221C773.7 221 789.3 209 805.2 207.2C821 205.3 837 213.7 852.8 215.5C868.7 217.3 884.3 212.7 892.2 210.3L900 208L900 301L892.2 301C884.3 301 868.7 301 852.8 301C837 301 821 301 805.2 301C789.3 301 773.7 301 758 301C742.3 301 726.7 301 710.8 301C695 301 679 301 663.2 301C647.3 301 631.7 301 615.8 301C600 301 584 301 568.2 301C552.3 301 536.7 301 521 301C505.3 301 489.7 301 473.8 301C458 301 442 301 426.2 301C410.3 301 394.7 301 379 301C363.3 301 347.7 301 331.8 301C316 301 300 301 284.2 301C268.3 301 252.7 301 236.8 301C221 301 205 301 189.2 301C173.3 301 157.7 301 142 301C126.3 301 110.7 301 94.8 301C79 301 63 301 47.2 301C31.3 301 15.7 301 7.8 301L0 301Z" fill="#FF5349" stroke-linecap="round" stroke-linejoin="miter"></path></svg>