<svg id="visual" viewBox="0 0 100 33" width="100" height="33" xmlns="http://www.w3.org/2000/svg" xmlns:xlink="http://www.w3.org/1999/xlink" version="1.1"><rect x="0" y="0" width="100" height="33" fill="#3c31dd"></rect><path d="M0 22L0.8 21.8C1.7 21.7 3.3 21.3 5.2 21.3C7 21.3 9 21.7 10.8 22.5C12.7 23.3 14.3 24.7 16 25.3C17.7 26 19.3 26 21 25.3C22.7 24.7 24.3 23.3 26.2 22.7C28 22 30 22 31.8 22.5C33.7 23 35.3 24 37 24.5C38.7 25 40.3 25 42 24.3C43.7 23.7 45.3 22.3 47.2 22.2C49 22 51 23 52.8 23.2C54.7 23.3 56.3 22.7 58 22.8C59.7 23 61.3 24 63 24.7C64.7 25.3 66.3 25.7 68.2 25.5C70 25.3 72 24.7 73.8 23.8C75.7 23 77.3 22 79 22.2C80.7 22.3 82.3 23.7 84 23.7C85.7 23.7 87.3 22.3 89.2 22C91 21.7 93 22.3 94.8 22.5C96.7 22.7 98.3 22.3 99.2 22.2L100 22L100 34L99.2 34C98.3 34 96.7 34 94.8 34C93 34 91 34 89.2 34C87.3 34 85.7 34 84 34C82.3 34 80.7 34 79 34C77.3 34 75.7 34 73.8 34C72 34 70 34 68.2 34C66.3 34 64.7 34 63 34C61.3 34 59.7 34 58 34C56.3 34 54.7 34 52.8 34C51 34 49 34 47.2 34C45.3 34 43.7 34 42 34C40.3 34 38.7 34 37 34C35.3 34 33.7 34 31.8 34C30 34 28 34 26.2 34C24.3 34 22.7 34 21 34C19.3 34 17.7 34 16 34C14.3 34 12.7 34 10.8 34C9 34 7 34 5.2 34C3.3 34 1.7 34 0.8 34L0 34Z" fill="#FF5349" stroke-linecap="round" stroke-linejoin="miter"></path></svg>